HIERARCHY
ROOT Pelvis
{
	OFFSET 0.000000 0.000000 0.000000
	CHANNELS 6 Xposition Yposition Zposition Xrotation Yrotation Zrotation
	JOINT LeftUpLeg_virtual
	{
		OFFSET 0.000000 0.000000 0.000000
		CHANNELS 3 Xrotation Yrotation Zrotation
		JOINT LeftUpLeg
		{
			OFFSET 18.735201 -5.666702 -4.541200
			CHANNELS 3 Xrotation Yrotation Zrotation
			JOINT LeftLeg
			{
				OFFSET -0.021200 -31.938179 0.493100
				CHANNELS 3 Xrotation Yrotation Zrotation
				JOINT LeftFoot
				{
					OFFSET 0.021200 -31.938179 -4.336299
					CHANNELS 3 Xrotation Yrotation Zrotation
					JOINT LeftToeBase
					{
						OFFSET 0.943001 -26.722000 15.023500
						CHANNELS 3 Xrotation Yrotation Zrotation
						End Site
						{
							OFFSET 0 0 0
						}
					}
				}
			}
		}
	}
	JOINT RightUpLeg_virtual
	{
		OFFSET 0.000000 0.000000 0.000000
		CHANNELS 3 Xrotation Yrotation Zrotation
		JOINT RightUpLeg
		{
			OFFSET -18.735201 -5.666702 -4.541200
			CHANNELS 3 Xrotation Yrotation Zrotation
			JOINT RightLeg
			{
				OFFSET 0.018946 -31.938133 0.493100
				CHANNELS 3 Xrotation Yrotation Zrotation
				JOINT RightFoot
				{
					OFFSET -0.018946 -31.938126 -4.336299
					CHANNELS 3 Xrotation Yrotation Zrotation
					JOINT RightToeBase
					{
						OFFSET -0.943001 -26.722004 15.023500
						CHANNELS 3 Xrotation Yrotation Zrotation
						End Site
						{
							OFFSET 0 0 0
						}
					}
				}
			}
		}
	}
	JOINT Hips_virtual
	{
		OFFSET 0.000000 0.000000 0.000000
		CHANNELS 3 Xrotation Yrotation Zrotation
		JOINT Hips
		{
			OFFSET -0.000000 -0.000000 -0.000000
			CHANNELS 3 Xrotation Yrotation Zrotation
			JOINT Spine
			{
				OFFSET 0.000000 10.199997 -0.299500
				CHANNELS 3 Xrotation Yrotation Zrotation
				JOINT Spine1
				{
					OFFSET 0.000000 11.900002 -1.516600
					CHANNELS 3 Xrotation Yrotation Zrotation
					JOINT Spine2
					{
						OFFSET 0.000000 13.600006 -2.842500
						CHANNELS 3 Xrotation Yrotation Zrotation
						JOINT Neck_virtual
						{
							OFFSET 0.000000 0.000000 0.000000
							CHANNELS 3 Xrotation Yrotation Zrotation
							JOINT Neck
							{
								OFFSET 0.000000 9.624100 -2.890100
								CHANNELS 3 Xrotation Yrotation Zrotation
								JOINT Head
								{
									OFFSET 0.000000 14.068802 -1.351900
									CHANNELS 3 Xrotation Yrotation Zrotation
									End Site
									{
										OFFSET 0 0 0
									}
								}
							}
						}
						JOINT LeftShoulder_virtual
						{
							OFFSET 0.000000 0.000000 0.000000
							CHANNELS 3 Xrotation Yrotation Zrotation
							JOINT LeftShoulder
							{
								OFFSET 15.263000 10.923401 -0.547700
								CHANNELS 3 Xrotation Yrotation Zrotation
								JOINT LeftArm
								{
									OFFSET 25.438599 -2.830597 -13.032500
									CHANNELS 3 Xrotation Yrotation Zrotation
									JOINT LeftForeArm
									{
										OFFSET 29.960503 0.000000 0.000000
										CHANNELS 3 Xrotation Yrotation Zrotation
										JOINT LeftHand
										{
											OFFSET 27.849251 0.000000 0.000000
											CHANNELS 3 Xrotation Yrotation Zrotation
											End Site
											{
												OFFSET 0 0 0
											}
										}
									}
								}
							}
						}
						JOINT RightShoulder_virtual
						{
							OFFSET 0.000000 0.000000 0.000000
							CHANNELS 3 Xrotation Yrotation Zrotation
							JOINT RightShoulder
							{
								OFFSET -15.263000 10.923401 -0.547700
								CHANNELS 3 Xrotation Yrotation Zrotation
								JOINT RightArm
								{
									OFFSET -25.438599 -2.830597 -13.032500
									CHANNELS 3 Xrotation Yrotation Zrotation
									JOINT RightForeArm
									{
										OFFSET -29.960503 0.000000 0.000000
										CHANNELS 3 Xrotation Yrotation Zrotation
										JOINT RightHand
										{
											OFFSET -27.849251 0.000000 0.000000
											CHANNELS 3 Xrotation Yrotation Zrotation
											End Site
											{
												OFFSET 0 0 0
											}
										}
									}
								}
							}
						}
					}
				}
			}
		}
	}
}
MOTION
Frames: 13
Frame Time: 0.03333333
-7.786491 87.317734 47.693851 0.000000 0.000000 0.000000 7.006110 -14.919853 -0.421484 -34.719925 4.990037 20.951832 41.914306 0.690922 0.130424 -11.839018 0.519924 -5.565803 0.000000 0.000000 0.000000 6.841808 -13.901984 -0.285620 -43.573947 5.039345 -8.837293 49.084707 -1.933490 0.892867 -12.611503 -3.964430 3.620253 0.000000 0.000000 0.000000 6.793811 -13.448791 -0.252307 -0.796420 0.033084 -0.057465 7.582211 2.562865 -2.271132 0.085910 -1.608564 -1.887762 0.000000 0.000000 0.000000 -1.612692 -1.194273 -0.580648 1.612368 -5.529263 0.639244 0.000000 0.000000 0.000000 1.616387 -1.908538 -0.221068 3.636879 -8.083912 13.381301 -24.604742 -15.085902 -14.414271 179.474996 -44.022581 -172.423003 0.000000 0.000000 0.000000 -2.851287 -0.879358 -1.286814 7.382491 -7.148952 -13.049377 -44.708004 33.206013 35.983120 140.264505 54.600478 -143.550782 0.000000 0.000000 0.000000 
-7.749759 88.153809 48.386204 0.000000 0.000000 0.000000 7.318792 -14.587049 -0.190416 -32.325250 5.543612 20.489671 37.188608 0.600382 -0.468492 -10.328949 0.132901 -5.386712 0.000000 0.000000 0.000000 7.107549 -13.573989 -0.081354 -41.300013 4.571204 -9.394119 44.696153 -2.065478 0.736835 -9.588875 -3.782159 4.452508 0.000000 0.000000 0.000000 7.042450 -13.181978 -0.058369 -0.792382 0.037574 -0.067389 7.176201 2.307061 -2.300882 -0.757003 -1.915766 -1.826644 0.000000 0.000000 0.000000 -2.402810 -1.473315 -0.632975 1.738496 -5.530688 0.512989 0.000000 0.000000 0.000000 0.656399 -2.152188 -0.347125 3.587653 -7.676689 13.170567 -24.518984 -15.373255 -15.004998 -179.788215 -44.736151 -171.567221 0.000000 0.000000 0.000000 -3.778638 -1.137522 -1.290366 7.120346 -6.950810 -13.631835 -43.554682 33.479593 36.383923 139.223776 55.222687 -142.381044 0.000000 0.000000 0.000000 
-7.685701 88.851212 48.938168 0.000000 0.000000 0.000000 7.524491 -14.257404 -0.015229 -30.254285 5.889134 20.125706 32.998047 0.521463 -1.114410 -8.606691 -0.440212 -5.360295 0.000000 0.000000 0.000000 7.282571 -13.223082 0.052900 -39.024890 3.946810 -9.703976 40.426435 -2.398014 0.543004 -6.791570 -3.690378 5.020009 0.000000 0.000000 0.000000 7.232458 -12.934443 0.099176 -0.785576 0.036785 -0.076937 6.773899 2.093987 -2.243104 -1.451756 -2.174640 -1.784412 0.000000 0.000000 0.000000 -3.097320 -1.696244 -0.691594 1.826304 -5.603034 0.436687 0.000000 0.000000 0.000000 -0.158912 -2.333915 -0.449356 3.527719 -7.050136 13.150772 -24.438926 -16.298658 -15.878750 -178.985981 -45.948499 -170.686373 0.000000 0.000000 0.000000 -4.539561 -1.344957 -1.322616 6.815896 -6.957345 -14.041550 -42.150808 33.984371 36.649962 138.277999 55.661793 -141.249897 0.000000 0.000000 0.000000 
-7.590431 89.340714 49.305813 0.000000 0.000000 0.000000 7.620643 -14.017574 0.101370 -28.638526 6.035146 19.816412 29.743397 0.477120 -1.733153 -6.981716 -1.083372 -5.275139 0.000000 0.000000 0.000000 7.353310 -12.971310 0.130161 -36.996546 3.300183 -9.746180 36.808825 -2.857832 0.322757 -4.742072 -3.701185 5.305820 0.000000 0.000000 0.000000 7.333947 -12.783803 0.216712 -0.780172 0.035009 -0.085180 6.390371 1.937933 -2.151431 -1.927213 -2.321607 -1.724797 0.000000 0.000000 0.000000 -3.617159 -1.810228 -0.715862 1.875810 -5.746958 0.405906 0.000000 0.000000 0.000000 -0.765453 -2.406511 -0.495309 3.478348 -6.246145 13.282857 -24.311054 -17.656924 -16.830476 -178.283565 -46.879509 -169.980527 0.000000 0.000000 0.000000 -5.078328 -1.446382 -1.340181 6.462116 -7.165034 -14.244158 -40.991322 34.530691 37.120777 137.352495 55.987730 -140.139404 0.000000 0.000000 0.000000 
-7.515679 89.611763 49.497398 0.000000 0.000000 0.000000 7.624070 -13.870142 0.164762 -27.515952 5.944265 19.548208 27.449161 0.460618 -2.270281 -5.845836 -1.744052 -5.021804 0.000000 0.000000 0.000000 7.314870 -12.819363 0.169936 -35.504525 2.750643 -9.638910 34.282164 -3.304582 0.081596 -3.324230 -3.742278 5.458586 0.000000 0.000000 0.000000 7.336246 -12.729753 0.291868 -0.777665 0.032311 -0.090788 6.011414 1.830221 -2.050349 -2.158647 -2.336463 -1.613160 0.000000 0.000000 0.000000 -3.936532 -1.777678 -0.673204 1.896344 -5.950007 0.409630 0.000000 0.000000 0.000000 -1.146786 -2.361991 -0.464292 3.437606 -5.301604 13.436752 -23.881190 -19.162733 -17.722755 -177.877551 -46.992285 -169.672226 0.000000 0.000000 0.000000 -5.361970 -1.403812 -1.306984 6.062750 -7.545805 -14.223707 -40.139133 34.805404 37.843093 136.681716 56.124778 -139.364833 0.000000 0.000000 0.000000 
-7.450252 89.690430 49.515926 0.000000 0.000000 0.000000 7.562769 -13.807839 0.187002 -26.866862 5.635795 19.323932 26.030201 0.465971 -2.732920 -5.222196 -2.386883 -4.666073 0.000000 0.000000 0.000000 7.203063 -12.745304 0.186424 -34.746654 2.327017 -9.498956 33.056842 -3.664954 -0.121269 -2.397144 -3.784217 5.583916 0.000000 0.000000 0.000000 7.258749 -12.766000 0.334723 -0.775171 0.035862 -0.091386 5.653188 1.757339 -1.974010 -2.142920 -2.230214 -1.452329 0.000000 0.000000 0.000000 -4.060556 -1.620140 -0.561656 1.899672 -6.196602 0.425774 0.000000 0.000000 0.000000 -1.341832 -2.207962 -0.354998 3.422614 -4.288103 13.398518 -22.927427 -20.738725 -18.562784 -177.820082 -46.451386 -169.825974 0.000000 0.000000 0.000000 -5.424596 -1.241882 -1.221490 5.660976 -7.991577 -13.932252 -39.195894 34.518991 38.515543 136.623864 56.028957 -139.251602 0.000000 0.000000 0.000000 
-7.425228 89.674950 49.385624 0.000000 0.000000 0.000000 7.452303 -13.767197 0.181791 -26.642101 5.270955 19.192304 25.293567 0.493455 -3.169454 -4.911555 -2.962912 -4.252710 0.000000 0.000000 0.000000 7.066865 -12.677289 0.190949 -34.627372 1.980798 -9.369934 32.845710 -3.940535 -0.229779 -1.901557 -3.834975 5.776446 0.000000 0.000000 0.000000 7.141420 -12.815254 0.355701 -0.772144 0.045662 -0.092517 5.335159 1.704248 -1.916317 -1.943590 -2.020441 -1.259929 0.000000 0.000000 0.000000 -4.009865 -1.373222 -0.404710 1.913059 -6.473203 0.430930 0.000000 0.000000 0.000000 -1.374104 -1.957967 -0.180701 3.460133 -3.340792 12.969412 -21.237170 -22.342722 -19.492498 -177.941004 -45.954421 -170.220813 0.000000 0.000000 0.000000 -5.322252 -0.997206 -1.098367 5.321489 -8.308564 -13.451664 -37.670471 33.642650 38.870774 137.224825 55.828911 -139.826130 0.000000 0.000000 0.000000 
-7.449231 89.624405 49.112724 0.000000 0.000000 0.000000 7.323711 -13.739841 0.179649 -26.752164 4.869265 19.176173 25.024623 0.568812 -3.587452 -4.673604 -3.444059 -3.869058 0.000000 0.000000 0.000000 6.917792 -12.654733 0.201930 -34.791204 1.681662 -9.251117 33.082677 -4.146797 -0.275022 -1.865927 -3.925393 5.970483 0.000000 0.000000 0.000000 7.008492 -12.838526 0.367327 -0.766972 0.055237 -0.090993 5.063075 1.651389 -1.864983 -1.635077 -1.752320 -1.070054 0.000000 0.000000 0.000000 -3.854977 -1.067209 -0.241292 1.948092 -6.769471 0.409881 0.000000 0.000000 0.000000 -1.287940 -1.653849 0.012944 3.560670 -2.620140 12.037437 -18.719969 -24.208492 -20.568251 -178.052226 -46.345347 -170.672412 0.000000 0.000000 0.000000 -5.099873 -0.692757 -0.971797 5.083166 -8.381664 -12.970590 -35.276974 32.449027 38.854542 138.279789 55.677349 -140.834239 0.000000 0.000000 0.000000 
-7.489328 89.591476 48.743355 0.000000 0.000000 0.000000 7.202208 -13.750838 0.207284 -27.022332 4.482531 19.239647 25.013167 0.619063 -3.952755 -4.372981 -3.820923 -3.585741 0.000000 0.000000 0.000000 6.797510 -12.681293 0.240768 -34.920790 1.422392 -9.161395 33.222440 -4.279902 -0.283402 -2.312502 -4.036564 6.174180 0.000000 0.000000 0.000000 6.892445 -12.856435 0.392200 -0.763999 0.060861 -0.091683 4.810787 1.590067 -1.809543 -1.279528 -1.449993 -0.929545 0.000000 0.000000 0.000000 -3.690043 -0.731332 -0.106105 2.014444 -7.068932 0.352121 0.000000 0.000000 0.000000 -1.127463 -1.318810 0.186686 3.725259 -2.275929 10.618138 -15.512879 -26.614052 -21.677224 -177.982026 -48.002986 -171.003362 0.000000 0.000000 0.000000 -4.822930 -0.357257 -0.880559 4.977708 -8.078741 -12.678944 -32.179832 31.376065 38.818240 139.170951 55.965778 -141.629150 0.000000 0.000000 0.000000 
-7.555344 89.581497 48.333939 0.000000 0.000000 0.000000 7.071048 -13.812914 0.268648 -27.225832 4.137329 19.315543 24.987216 0.623552 -4.239089 -3.975800 -4.147098 -3.501769 0.000000 0.000000 0.000000 6.687689 -12.778582 0.302283 -34.922887 1.195591 -9.175540 33.155791 -4.298207 -0.225469 -3.006002 -4.117984 6.513762 0.000000 0.000000 0.000000 6.770708 -12.891545 0.431474 -0.761081 0.060820 -0.092602 4.562292 1.536020 -1.733374 -0.940530 -1.118713 -0.863082 0.000000 0.000000 0.000000 -3.557964 -0.371558 -0.031607 2.111396 -7.355474 0.258204 0.000000 0.000000 0.000000 -0.931705 -0.969920 0.298587 3.912497 -2.386840 8.851252 -11.974152 -29.480063 -22.615204 -177.674339 -50.725114 -171.120213 0.000000 0.000000 0.000000 -4.528463 0.015132 -0.846431 5.006282 -7.372169 -12.684150 -28.774631 30.843014 39.282429 139.345230 57.019580 -141.686605 0.000000 0.000000 0.000000 
-7.637340 89.596527 47.918011 0.000000 0.000000 0.000000 6.928625 -13.926090 0.356652 -27.215425 3.938832 19.374397 24.769425 0.542553 -4.450175 -3.598407 -4.495036 -3.703142 0.000000 0.000000 0.000000 6.555402 -12.934325 0.379910 -35.001991 0.996119 -9.386047 33.225868 -4.170420 -0.062579 -3.459307 -4.090190 6.984469 0.000000 0.000000 0.000000 6.627330 -12.966411 0.498392 -0.761594 0.051195 -0.095767 4.310788 1.490259 -1.627875 -0.641395 -0.758704 -0.875190 0.000000 0.000000 0.000000 -3.486064 0.002433 -0.019802 2.227958 -7.602106 0.131270 0.000000 0.000000 0.000000 -0.745412 -0.618019 0.342672 4.068249 -2.864290 6.973109 -8.368691 -32.513855 -23.238952 -177.128361 -53.959888 -171.039125 0.000000 0.000000 0.000000 -4.262000 0.408621 -0.865340 5.164167 -6.314293 -12.839078 -25.204981 30.960773 40.300295 138.691417 58.897165 -140.834116 0.000000 0.000000 0.000000 
-7.723250 89.623695 47.572262 0.000000 0.000000 0.000000 6.732718 -14.067015 0.457644 -27.009239 3.914738 19.402525 24.361581 0.411931 -4.613653 -3.125085 -4.848742 -4.107291 0.000000 0.000000 0.000000 6.371798 -13.094805 0.470409 -35.261753 0.839564 -9.747333 33.650423 -3.931417 0.197439 -3.421596 -3.970907 7.501368 0.000000 0.000000 0.000000 6.441270 -13.084709 0.600709 -0.766930 0.038039 -0.098836 4.089087 1.456895 -1.502366 -0.387129 -0.386395 -0.946000 0.000000 0.000000 0.000000 -3.454997 0.370445 -0.053600 2.360015 -7.784982 -0.018729 0.000000 0.000000 0.000000 -0.590639 -0.268629 0.333028 4.155795 -3.567351 5.111658 -5.004020 -35.327145 -23.661157 -176.320282 -57.289878 -170.674037 0.000000 0.000000 0.000000 -4.076294 0.800224 -0.919061 5.419269 -4.989067 -12.852294 -21.626688 31.455835 41.658003 137.364598 61.471245 -139.207356 0.000000 0.000000 0.000000 
-7.805079 89.659996 47.293270 0.000000 0.000000 0.000000 6.455229 -14.243903 0.560389 -26.748800 4.045876 19.404318 24.039595 0.331725 -4.745268 -2.504263 -5.087104 -4.481206 0.000000 0.000000 0.000000 6.128257 -13.245706 0.564736 -35.622172 0.741336 -10.159826 34.399674 -3.698257 0.497098 -3.262909 -3.858480 7.864758 0.000000 0.000000 0.000000 6.185820 -13.241152 0.725029 -0.768825 0.027039 -0.098484 3.962772 1.429783 -1.368282 -0.171507 -0.038469 -1.031265 0.000000 0.000000 0.000000 -3.413434 0.705409 -0.107356 2.487425 -7.879969 -0.182158 0.000000 0.000000 0.000000 -0.483754 0.045993 0.296528 4.161180 -4.326726 3.398316 -2.152662 -37.654167 -24.242903 -175.224747 -60.675261 -169.950433 0.000000 0.000000 0.000000 -3.994100 1.149442 -0.975808 5.706226 -3.562684 -12.405100 -17.984884 31.850787 42.816086 135.936447 64.409729 -137.303809 0.000000 0.000000 0.000000 
